<svg width="82" height="115" fill="none" xmlns="http://www.w3.org/2000/svg"><g opacity=".3"><mask id="mask0_1_269" style="mask-type:alpha" maskUnits="userSpaceOnUse" x="10" y="0" width="12" height="11"><path d="M15.79 10.425c2.888 0 5.229-2.334 5.229-5.213C21.019 2.334 18.679 0 15.79 0s-5.229 2.334-5.229 5.212c0 2.88 2.341 5.213 5.229 5.213z" fill="url(#paint0_linear_1_269)"/></mask><g mask="url(#mask0_1_269)"><path d="M15.79 10.425c2.888 0 5.229-2.334 5.229-5.213C21.019 2.334 18.679 0 15.79 0s-5.229 2.334-5.229 5.212c0 2.88 2.341 5.213 5.229 5.213z" fill="url(#paint1_linear_1_269)"/></g><mask id="mask1_1_269" style="mask-type:alpha" maskUnits="userSpaceOnUse" x="40" y="0" width="12" height="11"><path d="M46.072 10.425c2.887 0 5.228-2.334 5.228-5.213C51.3 2.334 48.96 0 46.072 0s-5.229 2.334-5.229 5.212c0 2.88 2.341 5.213 5.229 5.213z" fill="url(#paint2_linear_1_269)"/></mask><g mask="url(#mask1_1_269)"><path d="M46.072 10.425c2.887 0 5.228-2.334 5.228-5.213C51.3 2.334 48.96 0 46.072 0s-5.229 2.334-5.229 5.212c0 2.88 2.341 5.213 5.229 5.213z" fill="url(#paint3_linear_1_269)"/></g><mask id="mask2_1_269" style="mask-type:alpha" maskUnits="userSpaceOnUse" x="71" y="0" width="11" height="11"><path d="M76.353 10.425c2.887 0 5.228-2.334 5.228-5.213 0-2.878-2.34-5.212-5.228-5.212s-5.229 2.334-5.229 5.212c0 2.88 2.341 5.213 5.229 5.213z" fill="url(#paint4_linear_1_269)"/></mask><g mask="url(#mask2_1_269)"><path d="M76.353 10.425c2.887 0 5.228-2.334 5.228-5.213 0-2.878-2.34-5.212-5.228-5.212s-5.229 2.334-5.229 5.212c0 2.88 2.341 5.213 5.229 5.213z" fill="url(#paint5_linear_1_269)"/></g><mask id="mask3_1_269" style="mask-type:alpha" maskUnits="userSpaceOnUse" x="10" y="26" width="12" height="11"><path d="M15.79 36.596c2.888 0 5.229-2.334 5.229-5.213 0-2.878-2.34-5.212-5.228-5.212s-5.229 2.334-5.229 5.212c0 2.88 2.341 5.213 5.229 5.213z" fill="url(#paint6_linear_1_269)"/></mask><g mask="url(#mask3_1_269)"><path d="M15.79 36.596c2.888 0 5.229-2.334 5.229-5.213 0-2.878-2.34-5.212-5.228-5.212s-5.229 2.334-5.229 5.212c0 2.88 2.341 5.213 5.229 5.213z" fill="url(#paint7_linear_1_269)"/></g><mask id="mask4_1_269" style="mask-type:alpha" maskUnits="userSpaceOnUse" x="40" y="26" width="12" height="11"><path d="M46.072 36.596c2.887 0 5.228-2.334 5.228-5.213 0-2.878-2.34-5.212-5.228-5.212s-5.229 2.334-5.229 5.212c0 2.88 2.341 5.213 5.229 5.213z" fill="url(#paint8_linear_1_269)"/></mask><g mask="url(#mask4_1_269)"><path d="M46.072 36.596c2.887 0 5.228-2.334 5.228-5.213 0-2.878-2.34-5.212-5.228-5.212s-5.229 2.334-5.229 5.212c0 2.88 2.341 5.213 5.229 5.213z" fill="url(#paint9_linear_1_269)"/></g><mask id="mask5_1_269" style="mask-type:alpha" maskUnits="userSpaceOnUse" x="71" y="26" width="11" height="11"><path d="M76.353 36.596c2.887 0 5.228-2.334 5.228-5.213 0-2.878-2.34-5.212-5.228-5.212s-5.229 2.334-5.229 5.212c0 2.88 2.341 5.213 5.229 5.213z" fill="url(#paint10_linear_1_269)"/></mask><g mask="url(#mask5_1_269)"><path d="M76.353 36.596c2.887 0 5.228-2.334 5.228-5.213 0-2.878-2.34-5.212-5.228-5.212s-5.229 2.334-5.229 5.212c0 2.88 2.341 5.213 5.229 5.213z" fill="url(#paint11_linear_1_269)"/></g><mask id="mask6_1_269" style="mask-type:alpha" maskUnits="userSpaceOnUse" x="10" y="52" width="12" height="11"><path d="M15.79 62.712c2.888 0 5.229-2.333 5.229-5.212 0-2.879-2.34-5.212-5.228-5.212s-5.229 2.333-5.229 5.212c0 2.879 2.341 5.212 5.229 5.212z" fill="url(#paint12_linear_1_269)"/></mask><g mask="url(#mask6_1_269)"><path d="M15.79 62.712c2.888 0 5.229-2.333 5.229-5.212 0-2.879-2.34-5.212-5.228-5.212s-5.229 2.333-5.229 5.212c0 2.879 2.341 5.212 5.229 5.212z" fill="url(#paint13_linear_1_269)"/></g><mask id="mask7_1_269" style="mask-type:alpha" maskUnits="userSpaceOnUse" x="40" y="52" width="12" height="11"><path d="M46.072 62.712c2.887 0 5.228-2.333 5.228-5.212 0-2.879-2.34-5.212-5.228-5.212s-5.229 2.333-5.229 5.212c0 2.879 2.341 5.212 5.229 5.212z" fill="url(#paint14_linear_1_269)"/></mask><g mask="url(#mask7_1_269)"><path d="M46.072 62.712c2.887 0 5.228-2.333 5.228-5.212 0-2.879-2.34-5.212-5.228-5.212s-5.229 2.333-5.229 5.212c0 2.879 2.341 5.212 5.229 5.212z" fill="url(#paint15_linear_1_269)"/></g><mask id="mask8_1_269" style="mask-type:alpha" maskUnits="userSpaceOnUse" x="71" y="52" width="11" height="11"><path d="M76.353 62.712c2.887 0 5.228-2.333 5.228-5.212 0-2.879-2.34-5.212-5.228-5.212s-5.229 2.333-5.229 5.212c0 2.879 2.341 5.212 5.229 5.212z" fill="url(#paint16_linear_1_269)"/></mask><g mask="url(#mask8_1_269)"><path d="M76.353 62.712c2.887 0 5.228-2.333 5.228-5.212 0-2.879-2.34-5.212-5.228-5.212s-5.229 2.333-5.229 5.212c0 2.879 2.341 5.212 5.229 5.212z" fill="url(#paint17_linear_1_269)"/></g><mask id="mask9_1_269" style="mask-type:alpha" maskUnits="userSpaceOnUse" x="10" y="78" width="12" height="11"><path d="M15.79 88.883c2.888 0 5.229-2.333 5.229-5.212 0-2.879-2.34-5.213-5.228-5.213s-5.229 2.334-5.229 5.213 2.341 5.212 5.229 5.212z" fill="url(#paint18_linear_1_269)"/></mask><g mask="url(#mask9_1_269)"><path d="M15.79 88.883c2.888 0 5.229-2.333 5.229-5.212 0-2.879-2.34-5.213-5.228-5.213s-5.229 2.334-5.229 5.213 2.341 5.212 5.229 5.212z" fill="url(#paint19_linear_1_269)"/></g><mask id="mask10_1_269" style="mask-type:alpha" maskUnits="userSpaceOnUse" x="40" y="78" width="12" height="11"><path d="M46.072 88.883c2.887 0 5.228-2.333 5.228-5.212 0-2.879-2.34-5.213-5.228-5.213s-5.229 2.334-5.229 5.213 2.341 5.212 5.229 5.212z" fill="url(#paint20_linear_1_269)"/></mask><g mask="url(#mask10_1_269)"><path d="M46.072 88.883c2.887 0 5.228-2.333 5.228-5.212 0-2.879-2.34-5.213-5.228-5.213s-5.229 2.334-5.229 5.213 2.341 5.212 5.229 5.212z" fill="url(#paint21_linear_1_269)"/></g><mask id="mask11_1_269" style="mask-type:alpha" maskUnits="userSpaceOnUse" x="71" y="78" width="11" height="11"><path d="M76.353 88.883c2.887 0 5.228-2.333 5.228-5.212 0-2.879-2.34-5.213-5.228-5.213s-5.229 2.334-5.229 5.213 2.341 5.212 5.229 5.212z" fill="url(#paint22_linear_1_269)"/></mask><g mask="url(#mask11_1_269)"><path d="M76.353 88.883c2.887 0 5.228-2.333 5.228-5.212 0-2.879-2.34-5.213-5.228-5.213s-5.229 2.334-5.229 5.213 2.341 5.212 5.229 5.212z" fill="url(#paint23_linear_1_269)"/></g><mask id="mask12_1_269" style="mask-type:alpha" maskUnits="userSpaceOnUse" x="10" y="104" width="12" height="11"><path d="M15.79 115c2.888 0 5.229-2.334 5.229-5.212 0-2.879-2.34-5.213-5.228-5.213s-5.229 2.334-5.229 5.213c0 2.878 2.341 5.212 5.229 5.212z" fill="url(#paint24_linear_1_269)"/></mask><g mask="url(#mask12_1_269)"><path d="M15.79 115c2.888 0 5.229-2.334 5.229-5.212 0-2.879-2.34-5.213-5.228-5.213s-5.229 2.334-5.229 5.213c0 2.878 2.341 5.212 5.229 5.212z" fill="url(#paint25_linear_1_269)"/></g><mask id="mask13_1_269" style="mask-type:alpha" maskUnits="userSpaceOnUse" x="40" y="104" width="12" height="11"><path d="M46.072 115c2.887 0 5.228-2.334 5.228-5.212 0-2.879-2.34-5.213-5.228-5.213s-5.229 2.334-5.229 5.213c0 2.878 2.341 5.212 5.229 5.212z" fill="url(#paint26_linear_1_269)"/></mask><g mask="url(#mask13_1_269)"><path d="M46.072 115c2.887 0 5.228-2.334 5.228-5.212 0-2.879-2.34-5.213-5.228-5.213s-5.229 2.334-5.229 5.213c0 2.878 2.341 5.212 5.229 5.212z" fill="url(#paint27_linear_1_269)"/></g><mask id="mask14_1_269" style="mask-type:alpha" maskUnits="userSpaceOnUse" x="71" y="104" width="11" height="11"><path d="M76.353 115c2.887 0 5.228-2.334 5.228-5.212 0-2.879-2.34-5.213-5.228-5.213s-5.229 2.334-5.229 5.213c0 2.878 2.341 5.212 5.229 5.212z" fill="url(#paint28_linear_1_269)"/></mask><g mask="url(#mask14_1_269)"><path d="M76.353 115c2.887 0 5.228-2.334 5.228-5.212 0-2.879-2.34-5.213-5.228-5.213s-5.229 2.334-5.229 5.213c0 2.878 2.341 5.212 5.229 5.212z" fill="url(#paint29_linear_1_269)"/></g></g><defs><linearGradient id="paint0_linear_1_269" x1="57.405" y1="110.551" x2="-13.997" y2="-71.253" gradientUnits="userSpaceOnUse"><stop/><stop offset="1" stop-color="#fff"/></linearGradient><linearGradient id="paint1_linear_1_269" x1="57.405" y1="110.551" x2="-13.997" y2="-71.253" gradientUnits="userSpaceOnUse"><stop stop-color="#97C3F9"/><stop offset="1" stop-color="#93C1F9"/></linearGradient><linearGradient id="paint2_linear_1_269" x1="83.609" y1="100.259" x2="12.208" y2="-81.544" gradientUnits="userSpaceOnUse"><stop/><stop offset="1" stop-color="#fff"/></linearGradient><linearGradient id="paint3_linear_1_269" x1="83.609" y1="100.259" x2="12.208" y2="-81.544" gradientUnits="userSpaceOnUse"><stop stop-color="#97C3F9"/><stop offset="1" stop-color="#93C1F9"/></linearGradient><linearGradient id="paint4_linear_1_269" x1="109.813" y1="89.968" x2="38.412" y2="-91.836" gradientUnits="userSpaceOnUse"><stop/><stop offset="1" stop-color="#fff"/></linearGradient><linearGradient id="paint5_linear_1_269" x1="109.813" y1="89.968" x2="38.412" y2="-91.836" gradientUnits="userSpaceOnUse"><stop stop-color="#97C3F9"/><stop offset="1" stop-color="#93C1F9"/></linearGradient><linearGradient id="paint6_linear_1_269" x1="48.462" y1="114.062" x2="-22.938" y2="-67.74" gradientUnits="userSpaceOnUse"><stop/><stop offset="1" stop-color="#fff"/></linearGradient><linearGradient id="paint7_linear_1_269" x1="48.462" y1="114.062" x2="-22.938" y2="-67.74" gradientUnits="userSpaceOnUse"><stop stop-color="#97C3F9"/><stop offset="1" stop-color="#93C1F9"/></linearGradient><linearGradient id="paint8_linear_1_269" x1="74.667" y1="103.771" x2="3.266" y2="-78.032" gradientUnits="userSpaceOnUse"><stop/><stop offset="1" stop-color="#fff"/></linearGradient><linearGradient id="paint9_linear_1_269" x1="74.667" y1="103.771" x2="3.266" y2="-78.032" gradientUnits="userSpaceOnUse"><stop stop-color="#97C3F9"/><stop offset="1" stop-color="#93C1F9"/></linearGradient><linearGradient id="paint10_linear_1_269" x1="100.871" y1="93.479" x2="29.471" y2="-88.323" gradientUnits="userSpaceOnUse"><stop/><stop offset="1" stop-color="#fff"/></linearGradient><linearGradient id="paint11_linear_1_269" x1="100.871" y1="93.479" x2="29.471" y2="-88.323" gradientUnits="userSpaceOnUse"><stop stop-color="#97C3F9"/><stop offset="1" stop-color="#93C1F9"/></linearGradient><linearGradient id="paint12_linear_1_269" x1="39.52" y1="117.575" x2="-31.881" y2="-64.229" gradientUnits="userSpaceOnUse"><stop/><stop offset="1" stop-color="#fff"/></linearGradient><linearGradient id="paint13_linear_1_269" x1="39.52" y1="117.575" x2="-31.881" y2="-64.229" gradientUnits="userSpaceOnUse"><stop stop-color="#97C3F9"/><stop offset="1" stop-color="#93C1F9"/></linearGradient><linearGradient id="paint14_linear_1_269" x1="65.724" y1="107.283" x2="-5.677" y2="-74.52" gradientUnits="userSpaceOnUse"><stop/><stop offset="1" stop-color="#fff"/></linearGradient><linearGradient id="paint15_linear_1_269" x1="65.724" y1="107.283" x2="-5.677" y2="-74.52" gradientUnits="userSpaceOnUse"><stop stop-color="#97C3F9"/><stop offset="1" stop-color="#93C1F9"/></linearGradient><linearGradient id="paint16_linear_1_269" x1="91.929" y1="96.992" x2="20.527" y2="-84.812" gradientUnits="userSpaceOnUse"><stop/><stop offset="1" stop-color="#fff"/></linearGradient><linearGradient id="paint17_linear_1_269" x1="91.929" y1="96.992" x2="20.527" y2="-84.812" gradientUnits="userSpaceOnUse"><stop stop-color="#97C3F9"/><stop offset="1" stop-color="#93C1F9"/></linearGradient><linearGradient id="paint18_linear_1_269" x1="30.578" y1="121.087" x2="-40.824" y2="-60.717" gradientUnits="userSpaceOnUse"><stop/><stop offset="1" stop-color="#fff"/></linearGradient><linearGradient id="paint19_linear_1_269" x1="30.578" y1="121.087" x2="-40.824" y2="-60.717" gradientUnits="userSpaceOnUse"><stop stop-color="#97C3F9"/><stop offset="1" stop-color="#93C1F9"/></linearGradient><linearGradient id="paint20_linear_1_269" x1="56.782" y1="110.795" x2="-14.62" y2="-71.008" gradientUnits="userSpaceOnUse"><stop/><stop offset="1" stop-color="#fff"/></linearGradient><linearGradient id="paint21_linear_1_269" x1="56.782" y1="110.795" x2="-14.62" y2="-71.008" gradientUnits="userSpaceOnUse"><stop stop-color="#97C3F9"/><stop offset="1" stop-color="#93C1F9"/></linearGradient><linearGradient id="paint22_linear_1_269" x1="82.986" y1="100.504" x2="11.585" y2="-81.3" gradientUnits="userSpaceOnUse"><stop/><stop offset="1" stop-color="#fff"/></linearGradient><linearGradient id="paint23_linear_1_269" x1="82.986" y1="100.504" x2="11.585" y2="-81.3" gradientUnits="userSpaceOnUse"><stop stop-color="#97C3F9"/><stop offset="1" stop-color="#93C1F9"/></linearGradient><linearGradient id="paint24_linear_1_269" x1="21.635" y1="124.599" x2="-49.766" y2="-57.205" gradientUnits="userSpaceOnUse"><stop/><stop offset="1" stop-color="#fff"/></linearGradient><linearGradient id="paint25_linear_1_269" x1="21.635" y1="124.599" x2="-49.766" y2="-57.205" gradientUnits="userSpaceOnUse"><stop stop-color="#97C3F9"/><stop offset="1" stop-color="#93C1F9"/></linearGradient><linearGradient id="paint26_linear_1_269" x1="47.84" y1="114.307" x2="-23.562" y2="-67.496" gradientUnits="userSpaceOnUse"><stop/><stop offset="1" stop-color="#fff"/></linearGradient><linearGradient id="paint27_linear_1_269" x1="47.84" y1="114.307" x2="-23.562" y2="-67.496" gradientUnits="userSpaceOnUse"><stop stop-color="#97C3F9"/><stop offset="1" stop-color="#93C1F9"/></linearGradient><linearGradient id="paint28_linear_1_269" x1="74.044" y1="104.016" x2="2.642" y2="-77.788" gradientUnits="userSpaceOnUse"><stop/><stop offset="1" stop-color="#fff"/></linearGradient><linearGradient id="paint29_linear_1_269" x1="74.044" y1="104.016" x2="2.642" y2="-77.788" gradientUnits="userSpaceOnUse"><stop stop-color="#97C3F9"/><stop offset="1" stop-color="#93C1F9"/></linearGradient></defs></svg>