<svg width="30" height="28" fill="none" xmlns="http://www.w3.org/2000/svg"><path d="M28.244.001V7.51H11.521a1.98 1.98 0 00-.59.083c-.187.057-.357.14-.5.247a1.103 1.103 0 00-.283.301c.156-1.902 1.115-3.717 2.74-5.18C14.511 1.495 16.714.46 19.176 0h9.067z" fill="url(#paint0_linear_1_402)"/><path d="M19.482 18.937c-.138 1.912-1.087 3.74-2.709 5.216-1.621 1.477-3.83 2.524-6.302 2.99h-8.65v-7.507h16.241c.207.002.412-.027.603-.086.183-.056.349-.14.488-.245.14-.106.252-.23.33-.368z" fill="url(#paint1_linear_1_402)"/><path d="M29.588 18.486c.008 1.158-.3 2.305-.904 3.37a7.632 7.632 0 01-.404.632c-.005.008-.009.011-.009.017a.03.03 0 01-.008.012c-1.242 1.765-3.254 3.154-5.699 3.936-1.421.46-2.954.695-4.502.688h-7.587l.087-.017c2.451-.477 4.637-1.527 6.24-3 1.605-1.471 2.543-3.289 2.68-5.188v-.003a.963.963 0 00.008-.882l-.012-.02a1.174 1.174 0 00-.325-.367 1.597 1.597 0 00-.5-.248 1.932 1.932 0 00-.59-.08h-6.54c-.326 0-.651-.009-.973-.033-.011 0-.024-.003-.04-.003a13.836 13.836 0 01-3.482-.655c-2.748-.889-4.936-2.537-6.112-4.604a6.775 6.775 0 01-.405-.816 6.614 6.614 0 01-.51-2.565C-.008 7.5.304 6.35.915 5.284 2.1 3.224 4.286 1.581 7.028.693 7.828.43 8.669.24 9.531.133a.741.741 0 01.071-.012 15.168 15.168 0 011.92-.12h7.655c-2.462.457-4.665 1.494-6.289 2.958-1.624 1.464-2.583 3.279-2.739 5.18a.9.9 0 00-.158.518.962.962 0 00.119.472.211.211 0 00.032.048c.068.12.166.228.29.319.143.107.313.191.5.248.188.057.388.085.59.083h6.54a14.701 14.701 0 014.497.676c2.765.873 4.965 2.526 6.127 4.603.154.27.288.545.401.825.336.828.505 1.69.501 2.555z" fill="url(#paint2_linear_1_402)"/><path d="M19.482 18.937c-.138 1.912-1.087 3.74-2.709 5.216-1.621 1.477-3.83 2.524-6.302 2.99H8.06c2.023-.716 3.81-1.76 5.23-3.059 1.42-1.298 2.437-2.817 2.979-4.447h1.792c.207.002.412-.027.603-.086.183-.056.349-.14.488-.244.14-.107.252-.232.33-.37zM21.35.001c-2.233 1.249-6.766 4.13-7.908 7.509h-1.92a1.98 1.98 0 00-.59.083c-.187.057-.357.14-.5.247a1.103 1.103 0 00-.283.301c.156-1.902 1.115-3.717 2.74-5.18C14.511 1.495 16.714.46 19.176 0h2.174z" fill="#000" opacity=".16"/><path d="M28.244 2.248V7.51H14.279a91.792 91.792 0 013.49-.188c1.162-.042 2.328-.078 3.49-.092 1.166-.027 2.328-.024 3.494-.033 1.046.01 2.082.01 3.126.027.012-.342.02-.685.04-1.03.02-.439.04-.877.075-1.315a40.62 40.62 0 01.25-2.632z" fill="#000" opacity=".25"/><path d="M29.588 18.486c.007 1.158-.3 2.305-.904 3.37a7.66 7.66 0 01-.405.632l.366-.73a7.203 7.203 0 00.591-2.065 7.37 7.37 0 00.036-1.4 7.355 7.355 0 00-.285-1.535 6.003 6.003 0 00-.29-.772c-.135-.261-.27-.527-.404-.792a8.184 8.184 0 00-1.111-1.484 9.054 9.054 0 00-1.464-1.3 12.166 12.166 0 00-1.713-1.027 14.945 14.945 0 00-1.821-.741 14.833 14.833 0 00-1.757-.45 18.437 18.437 0 00-2.788-.302l-1.083-.062h1.503a14.697 14.697 0 014.497.676c2.765.874 4.965 2.526 6.127 4.603a6.883 6.883 0 01.905 3.38z" fill="#fff" opacity=".7"/><path d="M9.222 27.141H1.82v-5.675c.09.473.146.942.206 1.418.047.474.091.947.119 1.418.04.474.048.948.071 1.421l.016 1.108c.48.006.96.006 1.44.015.615.018 1.23.024 1.848.054 1.234.045 2.467.113 3.7.241z" fill="#000" opacity=".25"/><path d="M10.51 17.3a13.84 13.84 0 01-3.482-.655c-2.748-.889-4.936-2.537-6.112-4.603a6.782 6.782 0 01-.405-.817 6.614 6.614 0 01-.51-2.565C-.008 7.5.304 6.35.915 5.284 2.1 3.224 4.286 1.581 7.028.693c.8-.263 1.641-.451 2.503-.56-.432.078-.859.173-1.277.286-2.84.762-5.19 2.305-6.576 4.317C.762 6.057.33 7.538.428 9.026c.031.748.203 1.489.512 2.2.091.181.179.363.266.542l.063.134.016.033a.058.058 0 01.008.017l.04.066.15.253c.2.328.43.646.686.95a9.983 9.983 0 001.71 1.6c.59.432 1.236.819 1.928 1.154.59.281 1.21.528 1.852.736.501.16 1.019.29 1.547.39.43.083.866.15 1.305.2zM19.177.001c-2.462.459-4.665 1.495-6.289 2.96-1.624 1.463-2.583 3.278-2.739 5.18a.457.457 0 00-.043.069l.032-.075c-.012-.235-.012-.473-.012-.712.024-.238.059-.476.09-.718.053-.236.124-.471.183-.707.08-.236.187-.462.278-.697.105-.23.234-.45.36-.676.136-.22.295-.433.437-.65.167-.211.35-.411.523-.62.19-.196.389-.39.588-.58.213-.185.44-.361.658-.54.238-.167.47-.334.718-.495l.773-.444c.27-.133.543-.259.82-.387.29-.107.572-.223.862-.328l.896-.262c.314-.069.619-.137.928-.196.31-.047.624-.086.937-.122zm.377 18.932c.004.244.004.483-.004.724-.02.241-.06.48-.095.721-.056.238-.12.477-.19.715-.08.236-.183.468-.275.7-.104.233-.241.453-.366.68-.134.223-.289.438-.44.655-.163.212-.344.414-.52.623-.19.2-.388.393-.586.587-.214.185-.44.363-.659.545-.238.17-.47.337-.718.5l-.773.448c-.27.134-.544.265-.821.392l-.86.337-.901.271-.925.203c-.238.036-.47.071-.706.101l.053.006-.274.024c-.004.003-.012.003-.016.003l-.004-.027-.004-.027.091.01c2.451-.477 4.637-1.528 6.241-3s2.542-3.289 2.68-5.188v-.003a.886.886 0 00.11-.447.827.827 0 01-.038.447z" fill="#fff" opacity=".7"/><defs><linearGradient id="paint0_linear_1_402" x1="28.244" y1="4.071" x2="10.891" y2="4.071" gradientUnits="userSpaceOnUse"><stop stop-color="#6888C8"/></linearGradient><linearGradient id="paint1_linear_1_402" x1="1.132" y1="23.04" x2="17.805" y2="23.04" gradientUnits="userSpaceOnUse"><stop stop-color="#6888C8"/><stop offset=".941" stop-color="#69DCFC"/></linearGradient><linearGradient id="paint2_linear_1_402" x1="14.794" y1="-.217" x2="14.794" y2="27.874" gradientUnits="userSpaceOnUse"><stop stop-color="#345392"/><stop offset=".831" stop-color="#6DDDFC"/></linearGradient></defs></svg>